/* XPM */
static char *_7e5b4ea19d34fa5adc40d64cda8be7d4gqWftTHUdhX034H[] = {
/* columns rows colors chars-per-pixel */
"64 64 153 2 ",
"   c #000000",
".  c #020807",
"X  c #030B09",
"o  c #04110F",
"O  c #051512",
"+  c #061A17",
"@  c #061D1A",
"#  c #07201C",
"$  c #08241F",
"%  c #062620",
"&  c #082621",
"*  c #092924",
"=  c #0A2F29",
"-  c #1C2F2C",
";  c #06312A",
":  c #0B342E",
">  c #19312D",
",  c #0C3730",
"<  c #0C3931",
"1  c #123C35",
"2  c #0F443B",
"3  c #10473E",
"4  c #1C403A",
"5  c #10483F",
"6  c #23443E",
"7  c #104A41",
"8  c #115046",
"9  c #13564A",
"0  c #145E51",
"q  c #204741",
"w  c #244A44",
"e  c #294F49",
"r  c #156154",
"t  c #17695B",
"y  c #186F60",
"u  c #1A7364",
"i  c #1B7A6A",
"p  c #217466",
"a  c #227769",
"s  c #227D6E",
"d  c #257F70",
"f  c #435C58",
"g  c #47645F",
"h  c #446560",
"j  c #5A7772",
"k  c #5B7874",
"l  c #647F7B",
"z  c #1C806F",
"x  c #1D8573",
"c  c #1E8977",
"v  c #1E8D7A",
"b  c #1F917D",
"n  c #208776",
"m  c #218977",
"M  c #20927E",
"N  c #67817D",
"B  c #1F9480",
"V  c #209682",
"C  c #259B87",
"Z  c #229F89",
"A  c #299D89",
"S  c #319F8C",
"D  c #24A48E",
"F  c #29A28D",
"G  c #24A690",
"H  c #2AA590",
"J  c #25AC95",
"K  c #2CA994",
"L  c #2DAE98",
"P  c #27B49C",
"I  c #29B39B",
"U  c #28B99F",
"Y  c #34B19C",
"T  c #28BBA1",
"R  c #37B6A0",
"E  c #32B9A2",
"W  c #6C8682",
"Q  c #54A698",
"!  c #29C0A6",
"~  c #2BC5AA",
"^  c #2BC9AD",
"/  c #32C3AA",
"(  c #2CCDB1",
")  c #3BCEB5",
"_  c #2ED0B4",
"`  c #2FDABC",
"'  c #31D3B7",
"]  c #3CD0B7",
"[  c #3ED2B8",
"{  c #30DDBF",
"}  c #3CDABF",
"|  c #42D3BA",
" . c #36DFC1",
".. c #3EDDC1",
"X. c #31E1C2",
"o. c #3AE2C5",
"O. c #42DFC4",
"+. c #5CDCC6",
"@. c #6AD7C4",
"#. c #43E1C5",
"$. c #42E8CB",
"%. c #48EBCF",
"&. c #46E4C9",
"*. c #47EDD0",
"=. c #4AEDD1",
"-. c #53EED3",
";. c #4BF0D4",
":. c #56F0D5",
">. c #65E5CF",
",. c #79E3D1",
"<. c #879A97",
"1. c #8B9E9B",
"2. c #9BADAA",
"3. c #95B2AD",
"4. c #BDC8C6",
"5. c #BFCAC8",
"6. c #BAC6C4",
"7. c #B6DAD4",
"8. c #84E9D8",
"9. c #8CF4E2",
"0. c #9EF5E5",
"q. c #A1F6E7",
"w. c #A8F3E6",
"e. c #A6F6E8",
"r. c #ABF7EA",
"t. c #B4F6EB",
"y. c #BDF5EB",
"u. c #B6F8ED",
"i. c #BAF8ED",
"p. c #D8DFDE",
"a. c #D9E0DF",
"s. c #C5ECE5",
"d. c #DFEBE9",
"f. c #C5F9F0",
"g. c #CAFAF2",
"h. c #D3FAF3",
"j. c #DBFBF6",
"k. c #E2E7E6",
"l. c #E5E9E9",
"z. c #E6FDF9",
"x. c #E5FCF8",
"c. c #E4FCF8",
"v. c #EAFDFA",
"b. c #EDFDFA",
"n. c #F5F7F7",
"m. c #F1F7F6",
"M. c #F5FEFC",
"N. c #F0FEFB",
"B. c #FAFFFE",
"V. c white",
"C. c #FEFFFF",
"Z. c #FCFFFE",
"A. c #FFFFFF",
/* pixels */
"                                                                                                                                ",
"                                                                                                                                ",
"                                                                                                                                ",
"                                                                                                                                ",
"                                                                                                                                ",
"                                                                                                                                ",
"                                                                                                                                ",
"                                                                                                                                ",
"                                                                                                                                ",
"                                                  X + O O O O O O O O O O + O                                                   ",
"                                                  # , , , , , , , , , , , , = .                                                 ",
"                                                  # : : : : : : : : : : : : = .                                                 ",
"                                            . . . > e e e e e e e e e e e e 6 X . .                                             ",
"                                          . * : = 1.l.k.k.k.k.k.k.k.k.k.k.l.5.4 : : o                                           ",
"                                          . : , : 2.V.V.V.V.V.V.V.V.V.V.V.V.a.q : , O                                           ",
"                                          . = : : 2.V.V.V.V.V.V.V.V.V.V.V.V.p.q : : O                                           ",
"                                    X # @ > <.2.2.7.g.g.g.g.g.g.g.g.g.h.z.z.s.S V V 5 @ # O                                     ",
"                                    O , : e l.V.V.g.0.q.q.q.q.q.q.q.q.u.h.h.u.o.{ { y : , &                                     ",
"                                    O : ; w k.V.V.g.q.q.q.q.q.q.q.q.q.i.h.h.i...` ` y : , &                                     ",
"                              X X X - h g j d.M.M.f.q.q.q.q.q.q.t.i.i.u.t.t.0.#. . .u : , &                                     ",
"                              & : : N n.n.m.h.h.h.u.q.q.q.q.q.e.v.V.V.r.=.-.=.=.=.%.p : , &                                     ",
"                              * , : W V.V.B.h.h.h.u.q.q.q.q.q.e.v.V.V.r.=.=.=.=.=.=.p : , &                                     ",
"                              * , : W V.V.B.h.g.h.u.e.e.e.q.q.e.v.V.V.r.=.=.=.=.=.=.a < < *                                     ",
"                              * , : W V.V.M.i.r.r.h.z.z.j.f.f.f.j.j.j.f.e.r.0.-.=.=./ J J x * * & .                             ",
"                              * , : W V.V.M.r.q.q.j.V.V.M.h.h.h.h.h.h.h.h.h.i.-.=.=.o.{ X.G < , : X                             ",
"                              % : ; W V.V.M.r.q.q.j.V.V.M.h.h.h.h.h.h.h.h.h.i.:.=.=.o.` { D < , : X                             ",
"                      . O O O g N l 3.j.j.j.f.f.f.g.h.h.g.i.u.u.u.u.u.u.u.i.q.| ) ) } o.o.K < , : X                             ",
"                      X : , 1 4.V.V.j.q.q.r.M.V.V.i.9.9.9.9.9.9.9.9.9.9.9.9.,.A B V ) =.;.Y < , : X                             ",
"                      X : , 1 4.V.V.j.q.q.r.M.V.V.i.9.9.9.9.9.9.9.9.9.9.9.9.,.A B V ) =.;.Y < : : X                             ",
"                      X : , 1 4.V.V.j.q.q.r.N.V.B.i.9.9.9.9.9.9.9.9.9.9.9.9.,.A B V ) =.;.R 3 2 2 o . .                         ",
"                      X : , 1 4.V.V.j.q.q.e.h.j.j.e.9.9.9.9.9.9.9.9.9.9.9.9.,.A B V ) =.=.O.~ ~ P 3 = = O                       ",
"                      X : , 1 4.V.V.j.q.q.e.g.h.h.e.9.9.9.9.9.9.9.9.9.9.9.9.,.A B V ) =.=.$.{ { ( 9 : , +                       ",
"                      X : , 1 4.V.V.j.q.q.e.g.h.h.e.9.9.9.9.9.9.9.9.9.9.9.9.,.A B V ] ;.=.$.{ { ( 9 : , +                       ",
"                      X : , 1 4.V.V.z.i.i.t.8.,.,.8.9.9.9.9.9.9.9.9.9.9.9.9.,.A B V K Y Y L J J D 7 : , +                       ",
"                      X : , 1 4.V.V.b.h.h.y.[ ^ ( >.9.9.9.9.9.9.9.9.9.9.9.9.,.A B V x i i i i i u 2 : , +                       ",
"                      X : , 1 4.V.V.b.h.h.y.| ( ( >.9.9.9.9.9.9.9.9.9.9.9.9.,.A B V x i i i i i u 2 : , +                       ",
"                      X : , 1 4.V.V.c.u.i.w.| ' ' +.,.,.,.,.,.,.,.,.,.,.,.,.@.H Z Z M c c x z z i 2 : , +                       ",
"                      X : , 1 4.V.V.i.-.-.-.%.%.%.E C C C C C C C C C C C C F ~ ^ ^ ^ ^ ^ U V V v 2 : , +                       ",
"                      X : , 1 4.V.V.u.=.=.=.=.=.=.E b V V V V V V V V V V B Z ^ ( ( ( ( ( T V V v 2 : , +                       ",
"                      X : , 1 6.V.V.u.=.=.=.=.=.=.E B V V V V V V V V V V V Z ^ ( ( ( ( ( T V V v 2 : , +                       ",
"                        o O O f k j Q =.=.&.K A F I T T T T T T T T T T T T U C V V T ( ( D 9 9 8 @ o O .                       ",
"                              % : ; s =.=.O.n i i J ( ( ( ( ( ( ( ( ( ( ( ( ! x i i I ( _ C , : : .                             ",
"                              * , : d =.=.#.m i i J ( ( ( ( ( ( ( ( ( ( ( ( ! x i i I ( _ Z < , : X                             ",
"                              * , : s $.$.} m i i J ( ( ( ( ( ( ( ( ( ( ( ( ! x i i D T T b < , : X                             ",
"                              * , : i { { _ x i i J ( ( ( ( ( ( ( ( ( ( ( ( ! x i i v V V u < , : X                             ",
"                              * , : i { { _ x i i J ( ( ( ( ( ( ( ( ( ( ( ( ! x i i v V V u < , : X                             ",
"                              & : : u _ _ ^ x i i J ( ( ( ( ( ( ( ( ( ( ( ( ! x i i c v b u : : = X                             ",
"                              . X X * 9 9 0 c b b U ( ( ( ( ( ( ( ( ( ( ( ( ~ V b v r 5 7 : X X X                               ",
"                                    O : : 2 c V V U ( ( ( ( ( ( ( ( ( ( ( ( ~ C V V 9 : : $                                     ",
"                                    O , : 2 c V V U _ ( ( ( ( ( ( ( ( ( ( _ ~ C V V 9 : , &                                     ",
"                                    X @ @ & r t t i x x x x x x x x x x x x x t t t , @ @ O                                     ",
"                                          . = : : : : : : : : : : : : : : : : : : : o                                           ",
"                                          . : , , , , , , , , , , , , , , , , , , , O                                           ",
"                                          . * = = = = = = = = = = = = = = = = = = = o                                           ",
"                                            . . . . . . . . . . . . . . . . . . . .                                             ",
"                                                                                                                                ",
"                                                                                                                                ",
"                                                                                                                                ",
"                                                                                                                                ",
"                                                                                                                                ",
"                                                                                                                                ",
"                                                                                                                                ",
"                                                                                                                                ",
"                                                                                                                                "
};
