/* XPM */
static char *_1ecb39f9ea1470db98e3e7f1db4ea2c8QcVHtIdiN2mW8J6[] = {
/* columns rows colors chars-per-pixel */
"64 64 161 2 ",
"   c #2F013E",
".  c #31043C",
"X  c #2E0144",
"o  c #27024F",
"O  c #2E014C",
"+  c #320245",
"@  c #32014C",
"#  c #39044D",
"$  c #2E0253",
"%  c #2E015B",
"&  c #330153",
"*  c #390155",
"=  c #320852",
"-  c #34015C",
";  c #39025D",
":  c #2F0263",
">  c #340163",
",  c #3A0164",
"<  c #35016B",
"1  c #3B016C",
"2  c #35096B",
"3  c #3E086A",
"4  c #360073",
"5  c #3C0270",
"6  c #3E0371",
"7  c #3E0072",
"8  c #3C0272",
"9  c #3D0373",
"0  c #3E0273",
"q  c #3D0171",
"w  c #3B0670",
"e  c #3C0471",
"r  c #3E0570",
"t  c #3F0671",
"y  c #3E0472",
"u  c #3E0673",
"i  c #390075",
"p  c #3B0074",
"a  c #3A0075",
"s  c #3B0275",
"d  c #380176",
"f  c #3B0277",
"g  c #3D0374",
"h  c #3E0274",
"j  c #3F0375",
"k  c #3C0177",
"l  c #3E0176",
"z  c #3F0277",
"x  c #3F0575",
"c  c #3E0675",
"v  c #3F0576",
"b  c #3C0173",
"n  c #3C0972",
"m  c #370078",
"M  c #380179",
"N  c #3B0179",
"B  c #39027A",
"V  c #3F0279",
"C  c #3C007A",
"Z  c #3D007A",
"A  c #3E017A",
"S  c #3D017B",
"D  c #420165",
"F  c #440967",
"G  c #40066D",
"H  c #42036C",
"J  c #45096A",
"K  c #490C6C",
"L  c #410173",
"P  c #430572",
"I  c #410274",
"U  c #410275",
"Y  c #400077",
"T  c #420177",
"R  c #410277",
"E  c #430276",
"W  c #420376",
"Q  c #440175",
"!  c #400475",
"~  c #400476",
"^  c #420274",
"/  c #490476",
"(  c #430872",
")  c #4A0974",
"_  c #400078",
"`  c #410179",
"'  c #430078",
"]  c #420179",
"[  c #420378",
"{  c #40007A",
"}  c #41007A",
"|  c #41007B",
" . c #41017B",
".. c #43007A",
"X. c #42007B",
"o. c #40037A",
"O. c #42027A",
"+. c #440079",
"@. c #44007A",
"#. c #41017C",
"$. c #42007C",
"%. c #43017C",
"&. c #41007E",
"*. c #40007F",
"=. c #42017F",
"-. c #43017F",
";. c #44007E",
":. c #45007F",
">. c #46017E",
",. c #47017E",
"<. c #44027B",
"1. c #4A047C",
"2. c #47097B",
"3. c #4C097C",
"4. c #50077D",
"5. c #510A7E",
"6. c #400081",
"7. c #450081",
"8. c #470080",
"9. c #460180",
"0. c #470281",
"q. c #470283",
"w. c #450382",
"e. c #490081",
"r. c #490181",
"t. c #480082",
"y. c #490083",
"u. c #480183",
"i. c #4A0082",
"p. c #490282",
"a. c #4B0383",
"s. c #480185",
"d. c #4C0386",
"f. c #4C0484",
"g. c #4C0383",
"h. c #4D0983",
"j. c #470188",
"k. c #4C0388",
"l. c #4E0288",
"z. c #4E0588",
"x. c #4D0489",
"c. c #4D098C",
"v. c #520584",
"b. c #580684",
"n. c #520984",
"m. c #5A0B85",
"M. c #500289",
"N. c #51038A",
"B. c #510589",
"V. c #50048A",
"C. c #51058B",
"Z. c #52048A",
"A. c #59068A",
"S. c #540A8A",
"D. c #5A0B8B",
"F. c #571088",
"G. c #540491",
"H. c #590790",
"J. c #570990",
"K. c #590891",
"L. c #581090",
/* pixels */
"+...+.>.f.B.B.M.a.a.9.$.A p p 5 p 4 < > > > % : > < < 4 m B B B 5 1 < - & O O O - - > < 0 R R Q 7.$...1 > & @ +     X X O O & - ",
"+.....>.f.B.B.M.a.a.9.$.A p p 5 5 5 < > > - - - > < < 4 m B B p 5 < > - & O O O % - > < 0 ~ R L $...z 1 , & @ @ X X X X O O $ & ",
"......>.a.z.B.B.a.a.9.$.A p 5 5 5 1 < > - - - - > > < 4 p B p p < < > - $ O O O $ % - > 1 u 0 0 R 0 1 < , - & @ O O O O O @ O $ ",
"R ....>.a.d.l.l.9.9.9.$.A p p 5 < > > - - - - - > > > < < 5 1 1 5 1 1 - & $ $ $ $ % % > 1 u 0 1 1 1 , , - - & & $ $ O @ @ @ @ @ ",
"z R ..$.>.9.a.s.>.>.$.$...z z 0 > - - - & & & & - - > > , , , , 5 0 1 > - & & = % % : > 1 u 0 1 , , - - - - - $ & & & @ @ @ @ @ ",
"v v ~ ....$.>.9.$.$.......~ P 1 - - & & & & & & - - > > > , > > 0 0 u 1 > - - - - - > < 1 0 5 0 - - - - & & & $ & & & & & & & & ",
"w u v v A ..$.$.$.$.....R P G 3 & & & & & & & & , , , > < < , > R R R 0 < > > - > > > 1 0 z z 0 - - - & & & $ $ & & & & & & & & ",
"w u u v z A A $.7.$...R R P G 3 & & @ @ @ & & & , , < < 1 1 1 < ..+.R L 1 > > , > > < 1 z z R z - - - & & & $ $ & & & & & & - - ",
"> > > < 1 5 p p R 0 0 1 < , ; ; O @ + + # * ; , / 2.2.=.A p 5 u a.h.h.1.Q 0 1 1 < 1 < 0 1.h.a.f.v < , , & & @ X O @ @ & - ; , , ",
"% - > > < 1 5 5 z 0 0 < , - - - O @ + @ * ; , H / 1.>.$.A p 5 u h.h.h.1.Q 0 1 1 < 1 < 0 2.a.a.f...0 1 , - & # + + + @ & & ; , < ",
"& - - > > 1 1 5 u u 1 < , - & & O @ @ @ ; , , L i.a.a.9.A p w 1 h.h.h.3.Q L 1 1 1 3 1 H 1.h.a.z.$.z 0 1 - & @ + + + @ @ & ; , , ",
"$ $ & - > > < < 1 1 , , - & @ @ O & & & D H L +.d.d.s.9.A 5 < 1 / 1.1./ L 1 1 1 , , , 1 / 1.a.f.s.$.+.L , & # + + + @ @ & - - ; ",
"O O & & - > > > > > - - & @ @ @ & - - ; J 1.1.h.d.d.a...1 > - - , , < < < > > > - ; ; , H Q +.>.C.z.h.3.H , ; * @ @ @ @ @ & & & ",
"O O @ & & - - > - - & & @ @ @ @ - - > < 2.5.h.v.d.d.,.R , - $ $ & - - > > - - - & & & - , H L +.S.B.S.h.P 1 , ; & @ @ @ @ @ @ @ ",
"X O O @ & - - - - - & & @ O O @ > > > 1 3.n.v.v.i.i.1.H , & @ @ & & $ % % % % - $ $ & & ; , 1 L v.v.n.h.Q 1 1 , ; - & @ @ + + + ",
"X O O O & & - - - & & & O O O X > < < 0 3.n.v.v.,./ / H ; @ X X @ O $ $ $ $ $ $ o O O & ; , , 1 b.n.S.n.+.L L 1 , ; - & @ + + . ",
"$ $ $ & & & & & @ & & $ - - > , >.a.h.a.,./ / / , , - & & @ O O @ O O O $ $ $ $ O O O @ @ @ & & 3 3 1 L 3.1.+./ R L 1 , - @ X X ",
"O $ $ & & & & @ @ & & & - ; > , >.,.,.,.+.Q P P , - - & @ @ O O @ O O & $ = $ $ $ O O @ @ @ & & , 1 1 0 >.a.,.,...R 1 , & @ + . ",
"$ $ $ $ $ O @ @ @ @ @ & ; ; - , s.9.a.>.+.P G G - - & & @ O @ @ O O O $ & & & & $ $ & & @ @ @ @ , < < 0 h.h.a.f...R 1 , * @ + . ",
"- - - - & & $ $ & & & - , 1 1 H s.s.s.>.R 1 3 , & & & @ @ @ @ @ $ $ $ & - - - - - - - & & @ @ @ - , > < ( 2.1.a.>.+.R 1 , * @ @ ",
"1 1 < < > > > > > , , 1 2.3.,.h.9.7.$.0 < , - - & @ @ @ @ @ @ @ & $ - - > > , , , , , - & & @ @ & & & - , 1 1 L h.h.h.1.R H 1 , ",
"A z z 5 < < < < < w 5 ..f.S.B.A.$.$.R 1 , - & & @ @ @ @ @ & & & - - - > , 1 1 1 1 1 1 , - & @ @ O @ O @ ; , , H n.S.S.h.a.+.R Q ",
"z z 0 1 < < : : < 4 5 z h.v.v.A.[ ~ u , ; & & @ @ @ @ & & & - - - > > < 1 5 0 z L 0 1 < > - & @ O @ O @ ; , , H h.n.n.f.9...R R ",
"R R 0 1 < > > : < w 5 R v.b.b.b.0 1 3 , - & @ @ @ @ @ & & - - > > > > < 5 z z A 0 R 0 < > - & & o $ O $ - , , L 3.n.n.h.+.R L H ",
"a.1.2.G < > > > 1 s A >.a.i.1./ > - & O @ @ @ @ @ @ & - , 3 1 1 t u u v z ....$.w.w.>.~ u 3 , - $ $ $ & & & ; , H L Q +.>.,./ / ",
"9.>.+.u < > > > w p A 7.9.a.1./ - - $ O @ @ @ @ @ @ & - , 1 0 0 P ~ ~ ~ ..$.$.$.w.w.>.>.P 1 3 , O O O @ @ & & ; H H R >.9.s.a.a.",
"j.w.>.~ 1 < > < s B A 6.s.s.a.,.- & O O @ @ @ @ @ & & ; < 1 0 0 R R ..........$.w.h.h.>.R 1 < < $ $ @ @ @ @ @ & F G R $.s.k.k.j.",
"7.>.~ 3 , > > > w s A A $.>.+.Q & & O O @ @ @ @ & & - > < 1 5 z ,.,.,.,.+...A A w.w.a.>...R L 0 - - & & @ @ @ & , , 1 z $.$.7.$.",
"5 1 , ; & & & & > > < < 5 1 < , & & $ O & & & & - - - > > < 1 5 b.S.S.v.,.$...A A A ..>.h.S.S.n.1 1 , - & & & & & & - > < < < < ",
"< , - & @ @ @ @ - - > < < > > - & & $ & & & & & - - - - > > > < D.D.D.b.1...A V A p z 9.S.L.D.S...v 1 - - & & & & & & - - > > - ",
"1 < , - & @ & & - > > < < > > - - - - % - - - - - - - - - - > , m.m.m.v./ R z z V z A 9.z.S.A.M...z 1 ; & @ O O & & & - > > > > ",
"4 < > - & & & & > > < < < > > > - - - % - - - - - - - - - - - , m.m.m.n./ R z [ z z ..a.S.J.H.H.L 1 , - & @ @ @ @ $ $ % > < < < ",
"4 4 < > - & & & - > > > : : % % % % % $ $ @ @ @ X O O O & & - - > > > 2 < < 1 P 1.3.i.d.s.s.s.a.1 < - & O O X X o $ - > 1 P L L ",
"4 4 < > - & & & - - > > > : > - % % % $ $ $ @ @ O O O O & & & - : > > > > < 1 L 2.1.,.a.a.a.a.a.5 < > & & O O X o $ - > 1 P L Q ",
"m 4 < > - - & & - - > > < > > > % $ $ $ & & & & O O O O & & & & % % % > > > < 1 2.1.1.a.a.a.a.a.5 < > - & $ O O $ % - > P ~ R +.",
"A A 5 < > - - - > > < < 5 5 1 1 & & & & & & & & $ & & O @ @ @ @ $ $ % % > > > < / / 2.1.a.a.a.a.0 < , - & & $ $ % > > < =.w.9.9.",
"7.=.~ u > > - > 1 < 5 A =.>.>.+.& & & & & & & & & & @ O O @ @ @ $ $ $ $ - > > > 1 0 0 ..>.>.>.>.z 0 < , - - = - > 2 < p j.x.k.x.",
"w.>.2.P 1 > > > w w p A w.f.f.a.- - - & & & & & @ @ @ @ O O O O & $ $ & - - > > < 1 5 z +.>.>.+.R 0 1 , ; - - - < 1 1 z a.c.x.z.",
">.3.2.( 1 > > > 2 < 5 ..a.f.d.i., , ; - & & @ @ @ @ @ O O O O O & & & & - - > > 1 1 5 z +.1.,.>...z 1 , - - - - > 1 < 5 h.h.a.a.",
"1.1.2.( > > : > 2 < 5 ..a.f.v.v.< , , - & & @ @ + + + @ O O O O & & & & - - - - < < < 5 ..>.>.+.$...1 , - - - - - , , 1 2.h.>.1.",
"H 1 1 , > > % % : > > 1 3.n.v.v.1.3.2.J ; @ @ + + + + @ $ & % % & & & & - - - > < < < 0 a.n.n.3.>.+.P 1 > - - - - - ; , 1 1 1 H ",
", , , , > - % % % - - 1 ) n.v.v.,.a.1.J , * # # + + @ @ & - % % & & & & - - > > 1 < 1 R 1.h.h.1...R u < - - & & - - - , , 1 1 1 ",
", , , > - - % $ $ - - , ) 5.h.v.l.d.a.P , * @ @ + + @ & & - > > - - - - - - > > < < 1 R 1.n.n.v.R L 3 , - & & & & & - , , , < , ",
"- - > - - - $ $ O & & ; J ) 1.h.x.l.i.+.H ; * & @ @ & & - - > > - - - - > > > , 1 1 L +.a.f.f.h.L 1 , ; & & & & & - - , , , , < ",
"- - > - - - & & O @ @ & ; , 1 R l.s.d.i.1.) K K - - - - - - > > > > > > , < 1 1 3.3.h.h.a.a.,.+., , - & & @ @ & & - - > < < 1 < ",
"- > > > > - - & @ @ O @ & ; > 1 s.a.a.i.h.n.3.3.< , > > - - - - > > > < 1 1 L L n.n.n.v.i.,.>.+.; - & @ @ @ @ & - - > < 1 5 5 5 ",
"> > > > > > - - @ & @ @ & - > < h.a.,.i.h.f.a.>.z 5 < > - - % $ : : < < 5 R R +.v.v.v.v.d.i.,.1.- & @ @ @ @ & & - > < 5 p B A A ",
"> > < < < > - - & & @ O & - - < 1./ / i.v.S.c.x.A A 5 > - % $ $ : : < < 5 R +.+.v.A.S.v.i.,./ +.& @ @ X @ @ @ & > > < p B A A A ",
"1 0 5 R 3.5.3.5.1 , , - O X O X > > , 1 3.n.h.v.M.M.f.>.0 , - - - - > 1 a.S.N.G.M.M.d.,.L , > - X + X O & - > 1 h.h.h.f.i.1.4.4.",
"1 0 5 R 3.n.3.5.H , , ; & = = O % - - , ) 3.h.v.M.l.d.>.0 < > - - > > 0 h.S.C.G.M.d.i.+.1 , - - X @ X @ & , < u h.h.f.f.i.,./ / ",
"1 0 0 R h.n.5.n.P 1 , ; & = = X $ & - , ) 3.v.v.l.l.s.9.A 1 < > > > < z h.S.C.G.d.i.1.L 1 - - & X O O O ; , H Q v.v.v.v.i.,.+.2.",
"1 0 5 R h.n.v.v./ P H , - & & X O = & - J ) 1.v.d.d.s.9.A p 5 5 < 5 5 A z.C.l.C.1./ P 1 , - $ $ o $ $ - F / / 1.b.v.v.h.a.$.z v ",
"1 5 5 R h.n.h.v.n.4.3.) , - & & X O O @ ; D H Q a.s.s.9.A B p p p B B A j.x.s.s.P H , ; & & $ $ % - > 3 3.n.b.m.v.v.i.>...5 4 < ",
"< 1 1 z a.h.i.v.D.m.F.n.1 , ; - O @ + @ * ; , H ,.1.w.7.A p p p B A C A 9.9.+.+., , ; & & & $ $ > 2 < P n.D.D.D.v.v.1...0 < < < ",
"< < < z h.h.h.v.S.n.S.n.L < , - @ @ + + # * ; , Q 2.>.[ A p 5 5 5 p p A [ / H J ; ; & & @ & & - 1 5 0 ..S.D.D.D.v.h.1.~ w 2 > > ",
"< < 1 0 h.h.h.v.S.v.n.h.+.H 1 > X @ X + @ * * ; / / [ V p 5 5 w < 5 5 5 ~ J F F & & @ @ @ & - - R R A >.S.D.S.b.1./ 2.u < > > : ",
"> > < 5 z ..9.s.S.B.v.v.h.1./ ( @ @ @ @ @ & & * , , , < < < > > < > > > > - - & @ @ @ O & - > < S.S.S.S.a.>...0 4 < < > > > - - ",
"> > < 1 z ..>.>.z.z.z.f.h.1./ P & @ @ @ @ @ & & ; ; , , > > > - > > > - - - & & @ @ @ @ ; , , 1 D.A.S.S.,...v 4 < < > > > - - - ",
"> > < 1 0 ....$.B.B.z.f.h.1.2./ & & & @ @ & & & - - - , > > - - - - - - - & & & @ @ @ & ; , 1 L D.A.D.S.>.v n 2 : : : - - - - ; ",
"> > > < 0 ..$.>.z.z.f.f.a.1.2./ - - & & & & & - - ; , , , , - - - - - - - & & & & & & - , H L +.A.v.v.h.~ 1 2 > % % % % - - - ; ",
"- - > < z 2.>.>.9.9.>.>.+.R R 0 , > - - - - - - , , < 1 1 1 < , , , > > > - - - - - - , J 1./ a.,.+.+./ < > > % $ $ $ $ & & & & ",
"- - > < P 2.>.>.$.$.>.....R 0 0 1 < , ; - - ; > < 1 0 z z z 0 0 < < < < > > > > - > > , / 3.1.d.z 0 0 1 > - - & $ $ $ $ $ & = & ",
"- - - < P 2.>.>.7.$.$.$...R R R 1 < , , - > > > 1 1 z A A A A A 5 5 4 < < > : : > > > 1 1.3.i.d.v 5 1 3 - - * & @ @ O O $ $ $ $ ",
"- - - , u [ +...$.$.....R L 0 0 1 < , , > , > > 1 5 p A A A A A 5 5 4 < < < : : > > , 1 1.n.h.v.1 < 3 , - & & @ @ @ @ O $ $ $ $ "
};
