/* XPM */
static char *aec92e999c8d4765b46823ecca98375bBrMqlpkuHMuOPIax[] = {
/* columns rows colors chars-per-pixel */
"64 64 115 2 ",
"   c #000000",
".  c #0C0303",
"X  c #150505",
"o  c #1B0606",
"O  c #1C0808",
"+  c #220707",
"@  c #250808",
"#  c #2C0A0A",
"$  c #340B0B",
"%  c #3C0D0D",
"&  c #3A1010",
"*  c #460F0F",
"=  c #490F0F",
"-  c #441212",
";  c #4C1111",
":  c #531212",
">  c #5B1313",
",  c #5D1919",
"<  c #651515",
"1  c #6A1616",
"2  c #621A1A",
"3  c #6E1E1E",
"4  c #721A1A",
"5  c #7A1A1A",
"6  c #772020",
"7  c #7C2121",
"8  c #755959",
"9  c #831C1C",
"0  c #8C1E1E",
"q  c #921F1F",
"w  c #8D2222",
"e  c #962121",
"r  c #9C2222",
"t  c #A32424",
"y  c #AA2424",
"u  c #A02B2B",
"i  c #AE2F2F",
"p  c #B32626",
"a  c #BB2727",
"s  c #BE2929",
"d  c #B63131",
"f  c #BB3232",
"g  c #C52A2A",
"h  c #CC2C2C",
"j  c #D12C2C",
"k  c #C63535",
"l  c #CE3333",
"z  c #CF3333",
"x  c #CE3232",
"c  c #C83535",
"v  c #CD3737",
"b  c #C93232",
"n  c #CB3838",
"m  c #CF3939",
"M  c #D23030",
"N  c #D53030",
"B  c #D53131",
"V  c #D73131",
"C  c #D43333",
"Z  c #D53333",
"A  c #D73232",
"S  c #D63333",
"D  c #D43434",
"F  c #D63434",
"G  c #D73636",
"H  c #D43232",
"J  c #D83232",
"K  c #D83333",
"L  c #D93333",
"P  c #D93434",
"I  c #DA3434",
"U  c #DB3535",
"Y  c #D93636",
"T  c #DB3737",
"R  c #DD3737",
"E  c #DB3535",
"W  c #D53D3D",
"Q  c #D53E3E",
"!  c #DB3838",
"~  c #D83B3B",
"^  c #DB3B3B",
"/  c #DD3838",
"(  c #DE3939",
")  c #DF3939",
"_  c #DF3A3A",
"`  c #DE3A3A",
"'  c #E03939",
"]  c #E13A3A",
"[  c #E03B3B",
"{  c #E13B3B",
"}  c #E23B3B",
"|  c #E13C3C",
" . c #E13D3D",
".. c #E23C3C",
"X. c #E33C3C",
"o. c #E33D3D",
"O. c #E43D3D",
"+. c #E53D3D",
"@. c #E53E3E",
"#. c #E63E3E",
"$. c #E63F3F",
"%. c #E43D3D",
"&. c #855151",
"*. c #865151",
"=. c #A84040",
"-. c #D84E4E",
";. c #DA5555",
":. c #E58686",
">. c #E48A8A",
",. c #F5D1D1",
"<. c #F5D2D2",
"1. c #F5D9D9",
"2. c #F5DADA",
"3. c #FDF5F5",
"4. c #FCFFFF",
/* pixels */
"                                                                                                                                ",
"                                                                                                                                ",
"                                                                                                                                ",
"                                                                                                                                ",
"                                                                                                                                ",
"                                                                                                                                ",
"                                                                                                                                ",
"                                                                                                                                ",
"                                                                                                                                ",
"                                                                                                                                ",
"                                              X * * * * * * * * * * * * * * * * X                                               ",
"                                              % g g g g g g g g g g g g g g g g %                                               ",
"                                      X X X X ; g g g g g g g g g g g g g g g g : X X X X                                       ",
"                                    o e y y y p h j ( [ [ [ [ [ [ [ [ [ [ [ [ [ a y y y e o                                     ",
"                                    o p g g g h j j [ @.@.@.@.@.@.@.@.@.@.@.@.@.l g g g p o                                     ",
"                                $ 4 9 l G G G Z j j J P P P P P P P P P P P P J j h j G l 9 4 $                                 ",
"                                : g h ..@.@.@.( j j j j j j j j j j j j j j j j j j J @...h g :                                 ",
"                                : g h ..@.[ [ P j j j j j j j j j j j j j j j j j j J @...h g :                                 ",
"                                : g h ..@.J j j j j j j j j j j j j j j j j j j j j J @...h g :                                 ",
"                                : g h ..@.J j j j j j j j j j j j j j j j j j j j j J @...h g :                                 ",
"                                : g h ..@.J j j j j j j j j j j j j j j j j j j j j J @...h g :                                 ",
"                                : g h ..@.J j j j j j j j j j j j j j j j j j j j j J @...h g :                                 ",
"                                : g g P P j j j j j j j j j j j j j j j j j j j j j j P P g g :                                 ",
"                                : g g h j j j j j j j j j j j j j j j j j j j j j j j j h g g :                                 ",
"              @ # X             : g g j j j j j j M -.;.W j j j j j j W ;.-.j j j j j j j g g :                                 ",
"            . i ^ 3             : g h [ @.J j j j W <.3.:.j j j j j j :.3.<.W j j j j j j g g :                                 ",
"            X f @.4             : g h ..@.J j j j W 2.4.>.j j j j j j >.4.2.W j j j j j j g g :                   . .           ",
"            . f @.3             : g g Z Z j j j j b &.8 =.j j j j j j =.8 &.b j j j j j j g g :                 o 0 q #         ",
"            . f @.3             : g g j j j j j j g : $ 0 j j j j j j 0 $ : g j j j j j j g g :                 @ g j %         ",
"        X ; : c @.3             $ 5 9 g h h j j j g : & w j j j j j j w & : g j j j h h g 9 5 $             # , 4 h h %         ",
"        % g g ( @.3                 o p g h j j j g : & w j j j j j j w & : g j j j h g p o                 3 @.[ j h %         ",
"        % g g ( ..7 o X             o p g h j j j g < ; e j j j j j j e ; < g j j j h g p o       . o o o o 7 ..( j h %         ",
"        % g g j j l v u .           o p g g g h j h g s h j j j j j j h s g j j h g g g p o       $ p a b n l j j g g %         ",
"        % g g h j P @.d .           o p g g g h j j j j j j j j j j j j j j j j h g g g p o       % h j [ @.P j h g g %         ",
"        X ; : p h j J b e w 9 9 ;   . * ; ; ; 4 g h j j j j j j j j j j j j h g 4 ; ; ; * .       % h j Z J j h p : ; X   $ 9 9 ",
"            . t g h j Z @.@.Z j 5             % g g h j j j j j j j j j j h g g %                 $ h j j j h g r .       : j j ",
"% % o       . 4 0 y h j P ^ j h q % % % % % % 1 g h h j h h h j j j j j j h h g 3 - - - - - - * % < h j j j h g r .   # % 5 j j ",
"h h :             1 g g g g g g h h h h h h h h j j j j h g g j j j j j j j j j ^ ............Z h h j j j j h g t .   q j h j j ",
"j j > . . X .     > a p p a p p g j j j j j j j j j j j h g g j j j j j j j j j ( ............J j j j j j j g a e o X e j j j j ",
"g g s f f f i @   X @ @ @ @ @ + 1 g g g g g g g g g h j h g g g g h j j j j j j h h h h h h h h g g g g g g 5 + % t y g j h g g ",
"g g P @.@.@.^ #                 : g g g g g g g g g h j h g g g g h j j j j j j h g g g g g g g g g g g g g <   @ g j j j h g g ",
"> > y G G P Z w 6 6 6 6 6 6 6 6 r h h h h h h h g g h h h h h g g h j h h h j j h h h h h h h h h h h h h h r 1 5 g h h h t > > ",
"    5 g g j j [ @.@.@.@.@.@.@.@.R j j j j j j h g g g g h j h g g h j h g g j j j j j j j j j j j j j j j j j j h g g g g 5     ",
"    > r y h h P ( ( ( ( ( ( ( ( G h h h h h h h g g g g h h h g g h j h g h h h h h h h h h h h h h h h h h h h g r e e r >     ",
"    . . * g g g g g g g g g g g g g g g g g g h j j j j h g g g g h j j j h g g g g g g g g g g g g g g g g g g t X . . . .     ",
"        % a s s s s s s s s s s s s s g g g g h j j j j h g g s g h j j j h g g g g g g g s s s s s s s s s s g e .             ",
"        . $ $ $ $ $ $ $ $ $ $ $ $ $ ; v ( M h h j j h g g g t % % y h h g h h h h h h h s ; $ $ $ $ $ $ $ $ $ $ # .             ",
"                                    O m @.J j j j j g g g g e . . e g g g g j j j j j j a o                                     ",
"    & 2 2 2 2 2 2 > > > > > , 2 2 , 4 D R Z j j h g 9 4 4 4 > . . > 4 e g g h h h h h j g 1 : > > > > > > > > > > > : o         ",
"    w @.@.@.@.@.@.P j j j j [ @.@.@...j j j j h g p +                 > g g g g g g h j j j j j j j j j j j j j j j j %         ",
"    7 c k k k ^ [ J h h h j R [ [ [ ( j h j j g y e o                 ; y y y y a g h h h h h h h h h h h h g p p p p $         ",
"    . X X X @ y g g g g g g g g g g g g g h j q X X                   . X X X X 0 g g g g g g g g g g g g g 4 X X X X .         ",
"            . r g g g g g g g g g g g g g h j 0                                 9 g g g g g g g g g g g g g <                   ",
"            . % * * * * * * * * * * * * * = ; $                                 $ * * * * * * * * * * * * * @                   ",
"                                                                                                                                ",
"                                                                                                                                ",
"                                                                                                                                ",
"                                                                                                                                ",
"                                                                                                                                ",
"                                                                                                                                ",
"                                                                                                                                ",
"                                                                                                                                ",
"                                                                                                                                ",
"                                                                                                                                "
};
